<svg width="180" height="191" viewBox="0 0 180 191" fill="none" xmlns="http://www.w3.org/2000/svg">
<path d="M152.981 46.3796H34.7535C33.7821 46.3504 32.8387 46.708 32.1306 47.3737C31.4224 48.0394 31.0074 48.9589 30.9766 49.9303V124.113H156.748V49.9303C156.734 49.4498 156.626 48.9767 156.429 48.5381C156.232 48.0995 155.95 47.704 155.6 47.3743C155.251 47.0445 154.839 46.7869 154.39 46.6163C153.94 46.4456 153.462 46.3652 152.981 46.3796ZM152.489 115.487H35.2453V51.1893H152.489V115.487Z" fill="black"/>
<path d="M15.584 124.152V126.552C15.5827 127.262 15.7214 127.965 15.9922 128.621C16.263 129.278 16.6605 129.874 17.1621 130.376C17.6637 130.879 18.2594 131.278 18.9152 131.55C19.571 131.822 20.2739 131.962 20.9839 131.962H166.742C168.177 131.962 169.553 131.392 170.567 130.377C171.582 129.363 172.152 127.987 172.152 126.552V124.152H15.584Z" fill="black"/>
<path d="M152.981 46.3796H34.7535C33.7821 46.3504 32.8387 46.708 32.1306 47.3737C31.4224 48.0394 31.0074 48.9589 30.9766 49.9303V124.113H156.748V49.9303C156.734 49.4498 156.626 48.9767 156.429 48.5381C156.232 48.0995 155.95 47.704 155.6 47.3743C155.251 47.0445 154.839 46.7869 154.39 46.6163C153.94 46.4456 153.462 46.3652 152.981 46.3796V46.3796Z" stroke="black" stroke-width="2" stroke-linecap="round" stroke-linejoin="round"/>
<path d="M15.584 124.152V126.552C15.5827 127.262 15.7214 127.965 15.9922 128.621C16.263 129.278 16.6605 129.874 17.1621 130.376C17.6637 130.879 18.2594 131.278 18.9152 131.55C19.571 131.822 20.2739 131.962 20.9839 131.962H166.742C168.177 131.962 169.553 131.392 170.567 130.377C171.582 129.363 172.152 127.987 172.152 126.552V124.152H15.584Z" stroke="black" stroke-width="2" stroke-linecap="round" stroke-linejoin="round"/>
<path d="M114.228 106.929C117.351 106.929 119.884 104.397 119.884 101.274C119.884 98.15 117.351 95.6179 114.228 95.6179C111.104 95.6179 108.572 98.15 108.572 101.274C108.572 104.397 111.104 106.929 114.228 106.929Z" stroke="white" stroke-width="3" stroke-linecap="round" stroke-linejoin="round"/>
<path d="M80.3724 106.929C83.496 106.929 86.0281 104.397 86.0281 101.274C86.0281 98.15 83.496 95.6179 80.3724 95.6179C77.2489 95.6179 74.7168 98.15 74.7168 101.274C74.7168 104.397 77.2489 106.929 80.3724 106.929Z" stroke="white" stroke-width="3" stroke-linecap="round" stroke-linejoin="round"/>
<path d="M64.3691 59.7466H72.8575L80.7656 89.2543H114.227L118.88 67.0743H74.8247" stroke="white" stroke-width="3" stroke-linecap="round" stroke-linejoin="round"/>
<path d="M114.228 95.618H79.9797C79.1371 95.618 78.3291 95.2833 77.7333 94.6875C77.1375 94.0916 76.8027 93.2836 76.8027 92.441C76.8027 91.5975 77.1371 90.7884 77.7327 90.191C78.3282 89.5937 79.1362 89.2568 79.9797 89.2542H84.0518" stroke="white" stroke-width="3" stroke-linecap="round" stroke-linejoin="round"/>
<path d="M90.0703 7.42944C113.428 7.42944 135.829 16.7083 152.346 33.2247C168.862 49.7412 178.141 72.1423 178.141 95.5" stroke="black" stroke-width="3" stroke-linecap="round" stroke-linejoin="round"/>
<path d="M90.0706 183.571C66.7128 183.571 44.3117 174.292 27.7953 157.775C11.2788 141.259 2 118.858 2 95.5" stroke="black" stroke-width="3" stroke-linecap="round" stroke-linejoin="round"/>
<path d="M93.0017 12.8588L87.5723 7.42941L93.0017 2" stroke="black" stroke-width="3" stroke-linecap="round" stroke-linejoin="round"/>
<path d="M86.7363 189L92.1756 183.571L86.7363 178.141" stroke="black" stroke-width="3" stroke-linecap="round" stroke-linejoin="round"/>
<path d="M95.894 128.057C101.933 128.057 107.884 128.057 108.877 127.801C110.913 127.221 110.913 124.673 110.913 124.673H80.1172C80.1172 124.673 80.1172 127.221 82.1532 127.801C83.1368 128.086 89.0974 128.027 95.1366 128.057" fill="white"/>
</svg>
