<svg width="151" height="188" viewBox="0 0 151 188" fill="none" xmlns="http://www.w3.org/2000/svg">
<path d="M24.9699 6.29465L98.4775 1.77111C101.687 1.57362 104.844 2.64882 107.254 4.7602C109.664 6.87157 111.13 9.84616 111.329 13.0296L112.367 29.6238L14.6577 35.6366L13.6199 19.0424C13.4208 15.859 14.5047 12.7275 16.6332 10.3368C18.7618 7.94616 21.7605 6.49214 24.9699 6.29465Z" fill="black"/>
<path d="M60.7855 107.756L34.5709 109.364C34.22 109.386 33.8681 109.34 33.5354 109.227C33.2026 109.114 32.8956 108.938 32.6319 108.707C32.3682 108.476 32.153 108.196 31.9987 107.883C31.8444 107.569 31.7539 107.229 31.7326 106.881L30.5146 87.5059C30.4718 86.8019 30.7127 86.1098 31.1841 85.5819C31.6556 85.054 32.3191 84.7333 33.0288 84.6905L59.2323 83.0833C59.5855 83.0608 59.9397 83.1079 60.2745 83.2219C60.6093 83.3358 60.918 83.5144 61.1829 83.7472C61.4478 83.9801 61.6636 84.2627 61.8178 84.5787C61.9721 84.8947 62.0618 85.2378 62.0817 85.5883L63.2885 105.008C63.3161 105.699 63.0697 106.374 62.6018 106.888C62.134 107.402 61.4821 107.714 60.7855 107.756ZM33.1741 87.1512C33.1247 87.1567 33.0791 87.1801 33.0461 87.2169C33.0131 87.2538 32.995 87.3014 32.9953 87.3507L34.2133 106.77C34.2188 106.819 34.2424 106.864 34.2795 106.897C34.3167 106.93 34.3647 106.948 34.4144 106.947L60.629 105.34C60.6794 105.332 60.7251 105.307 60.7579 105.268C60.7908 105.229 60.8085 105.18 60.8078 105.13L59.5898 85.7214C59.59 85.6961 59.5848 85.6711 59.5745 85.6479C59.5641 85.6248 59.5489 85.6042 59.5298 85.5874C59.5108 85.5706 59.4884 85.5581 59.464 85.5506C59.4397 85.5431 59.414 85.5409 59.3887 85.544L33.1741 87.1512Z" fill="white"/>
<path d="M107.345 86.3662L67.4238 88.7258L67.572 91.1932L107.494 88.8336L107.345 86.3662Z" fill="white"/>
<path d="M108.013 96.9817L68.0918 99.3413L68.24 101.809L108.162 99.4491L108.013 96.9817Z" fill="white"/>
<path d="M59.6578 68.0533L33.4432 69.6605C33.0923 69.683 32.7405 69.6366 32.4077 69.5239C32.075 69.4112 31.768 69.2345 31.5043 69.0038C31.2406 68.7731 31.0254 68.493 30.871 68.1797C30.7167 67.8663 30.6263 67.5258 30.605 67.1777L29.3982 47.7584C29.3754 47.4104 29.4222 47.0613 29.5358 46.7313C29.6495 46.4012 29.8277 46.0967 30.0602 45.8351C30.2928 45.5735 30.5751 45.36 30.891 45.207C31.2069 45.0539 31.5502 44.9642 31.9012 44.943L58.1158 43.3359C58.4667 43.3133 58.8185 43.3597 59.1513 43.4724C59.484 43.5851 59.7911 43.7619 60.0548 43.9926C60.3185 44.2232 60.5336 44.5033 60.688 44.8167C60.8423 45.1301 60.9327 45.4706 60.954 45.8187L62.172 65.238C62.2148 65.942 61.974 66.634 61.5025 67.162C61.0311 67.6899 60.3675 68.0105 59.6578 68.0533ZM32.0576 47.4037C32.0082 47.4092 31.9626 47.4326 31.9296 47.4694C31.8966 47.5063 31.8785 47.5539 31.8788 47.6032L33.0856 67.0225C33.0913 67.0734 33.1165 67.1203 33.156 67.1533C33.1955 67.1863 33.2464 67.203 33.2979 67.1998L59.5014 65.637C59.5264 65.6356 59.5508 65.6293 59.5733 65.6185C59.5958 65.6077 59.6159 65.5926 59.6325 65.574C59.6492 65.5555 59.6619 65.5339 59.6701 65.5105C59.6783 65.487 59.6817 65.4622 59.6802 65.4375L58.4734 45.9739C58.4678 45.9249 58.4442 45.8797 58.4071 45.8469C58.37 45.8142 58.3219 45.7962 58.2722 45.7965L32.0576 47.4037Z" fill="white"/>
<path d="M106.884 57.2383L66.9629 59.5979L67.1111 62.0653L107.033 59.7057L106.884 57.2383Z" fill="white"/>
<path d="M71.501 158.411L55.7566 159.286L55.6113 156.815L71.3446 155.95L71.501 158.411Z" fill="white"/>
<path d="M109.728 166.701L83.5358 168.32C82.8256 168.359 82.1283 168.12 81.595 167.653C81.0616 167.186 80.7352 166.53 80.6863 165.826L79.4795 146.418C79.4366 145.714 79.6755 145.023 80.1444 144.493C80.6132 143.964 81.2739 143.64 81.9826 143.591L108.197 141.984C108.548 141.962 108.9 142.008 109.233 142.121C109.565 142.233 109.872 142.41 110.136 142.641C110.4 142.871 110.615 143.151 110.769 143.465C110.924 143.778 111.014 144.119 111.035 144.467L112.253 163.886C112.275 164.236 112.226 164.586 112.11 164.917C111.995 165.247 111.815 165.552 111.58 165.814C111.345 166.075 111.061 166.288 110.743 166.441C110.425 166.593 110.08 166.682 109.728 166.701ZM82.1278 146.063C82.1029 146.064 82.0784 146.071 82.0559 146.081C82.0334 146.092 82.0133 146.107 81.9967 146.126C81.9801 146.144 81.9673 146.166 81.9591 146.19C81.951 146.213 81.9475 146.238 81.949 146.262L83.167 165.671C83.1668 165.696 83.1721 165.721 83.1824 165.744C83.1928 165.767 83.208 165.788 83.227 165.805C83.2461 165.821 83.2685 165.834 83.2929 165.841C83.3172 165.849 83.3429 165.851 83.3681 165.848L109.583 164.285C109.632 164.28 109.678 164.256 109.711 164.219C109.744 164.183 109.762 164.135 109.762 164.086L108.544 144.666C108.538 144.617 108.514 144.572 108.477 144.539C108.44 144.507 108.392 144.489 108.342 144.489L82.1278 146.063Z" fill="white"/>
<path d="M109.183 117.601L32.2852 122.333L32.4395 124.8L109.338 120.068L109.183 117.601Z" fill="white"/>
<path d="M101.504 0.240964L21.7542 5.12904C19.0459 5.30017 16.5164 6.52886 14.7194 8.54606C12.9225 10.5633 12.0046 13.2046 12.1668 15.8917L20.0781 142.571C21.0046 143.253 21.8855 143.993 22.7152 144.788L14.6474 15.7587C14.5221 13.7231 15.2168 11.7214 16.5788 10.1937C17.9408 8.66604 19.8586 7.73737 21.9107 7.61187L101.661 2.70163C103.713 2.57728 105.731 3.26635 107.271 4.61737C108.811 5.96838 109.747 7.87075 109.874 9.90627L120.009 172.044C120.119 174.077 119.42 176.072 118.061 177.598C116.702 179.124 114.793 180.059 112.746 180.202L32.9954 185.101C31.0417 185.219 29.1154 184.599 27.604 183.365C26.0927 182.131 25.1085 180.375 24.8495 178.451C24.2232 179.228 23.5516 179.968 22.8381 180.667C23.5579 182.777 24.9579 184.594 26.822 185.836C28.6861 187.078 30.9105 187.676 33.1519 187.539L112.902 182.64C115.611 182.472 118.143 181.244 119.94 179.226C121.738 177.208 122.655 174.565 122.489 171.878L112.366 9.72892C112.185 7.04548 110.941 4.54193 108.906 2.76447C106.872 0.986996 104.211 0.079861 101.504 0.240964Z" fill="black"/>
<path d="M39.0008 137.364L7.26016 139.317C4.11882 139.51 1.73025 142.193 1.92513 145.309L3.89428 176.794C4.08917 179.91 6.79371 182.279 9.93505 182.086L41.6757 180.132C44.8171 179.939 47.2056 177.256 47.0107 174.14L45.0416 142.656C44.8467 139.54 42.1422 137.17 39.0008 137.364Z" fill="#74E0FC"/>
<path d="M39.555 136.741L6.68789 138.764C3.54656 138.957 1.15799 141.64 1.35287 144.756L3.3919 177.358C3.58678 180.474 6.29132 182.843 9.43266 182.65L42.2998 180.627C45.4411 180.434 47.8297 177.751 47.6348 174.635L45.5958 142.033C45.4009 138.917 42.6963 136.548 39.555 136.741Z" stroke="#74E0FC" stroke-width="2" stroke-miterlimit="10"/>
<path d="M17.1133 151.306L17.5312 151.28L17.5794 150.864L17.8015 148.948C17.8241 148.818 17.889 148.699 17.9872 148.608C18.0863 148.516 18.2137 148.459 18.3498 148.446L29.0634 147.793C29.2006 147.788 29.3351 147.829 29.4458 147.908C29.5553 147.986 29.6352 148.097 29.6742 148.223L30.1295 150.052L30.2299 150.455L30.6449 150.43L35.9415 150.109L35.9432 150.109C36.229 150.09 36.5155 150.128 36.7863 150.22C37.0571 150.312 37.3067 150.455 37.521 150.643C37.7352 150.83 37.9097 151.057 38.0348 151.311C38.1598 151.565 38.2329 151.841 38.2503 152.122C38.2503 152.122 38.2504 152.123 38.2504 152.123L39.2113 168.316L39.2114 168.317C39.2461 168.886 39.0523 169.446 38.6712 169.874C38.2903 170.303 37.7529 170.565 37.1763 170.603C37.176 170.603 37.1756 170.603 37.1753 170.603L13.1124 172.077C13.1116 172.077 13.1109 172.077 13.1101 172.077C12.5382 172.106 11.9785 171.91 11.5523 171.532L11.2209 171.907L11.5523 171.532C11.1257 171.155 10.8676 170.626 10.8326 170.062L10.8326 170.062L9.82688 153.912L9.82678 153.911C9.80839 153.629 9.84627 153.347 9.93831 153.079C10.0303 152.812 10.1748 152.565 10.3636 152.352C10.5523 152.14 10.7817 151.967 11.0387 151.842C11.2957 151.718 11.5752 151.645 11.861 151.627L11.8614 151.627L17.1133 151.306ZM28.7761 149.347L28.6774 148.943L28.2625 148.966L19.3566 149.465L18.9364 149.489L18.8879 149.907L18.6658 151.824C18.6435 151.952 18.5795 152.071 18.4825 152.162C18.3851 152.253 18.2599 152.311 18.1257 152.326L12.0052 152.701C11.8631 152.702 11.7227 152.733 11.5927 152.791C11.4563 152.851 11.3344 152.941 11.2356 153.053C11.1368 153.165 11.0635 153.298 11.021 153.441C10.9808 153.577 10.9691 153.719 10.9865 153.859L11.9911 169.991L11.991 169.991L11.9918 170.001C12.0138 170.271 12.1407 170.522 12.3443 170.7C12.5478 170.878 12.8122 170.97 13.0819 170.958L13.0819 170.958L13.0908 170.958L37.1555 169.473C37.2893 169.467 37.4208 169.434 37.5425 169.378C37.666 169.32 37.7769 169.239 37.8686 169.138L37.8686 169.137C37.9603 169.036 38.0309 168.918 38.076 168.789C38.1211 168.66 38.1398 168.523 38.131 168.387C38.131 168.387 38.131 168.387 38.131 168.387L37.1254 152.239L36.6264 152.27L37.1254 152.239L37.1254 152.239C37.117 152.103 37.0817 151.97 37.0216 151.848L36.573 152.069C36.542 152.006 36.4988 151.949 36.4458 151.903C36.3929 151.857 36.3312 151.821 36.2644 151.799C36.1976 151.776 36.1269 151.767 36.0565 151.771L36.0261 151.272L36.0255 151.272C36.0252 151.272 36.0249 151.272 36.0246 151.272L29.8425 151.648C29.7047 151.652 29.5698 151.611 29.4591 151.531C29.3492 151.451 29.2696 151.338 29.2319 151.21L28.7761 149.347Z" fill="#74E0FC" stroke="#74E0FC"/>
<path d="M28.5741 166.44C27.5306 167.229 26.2742 167.694 24.9637 167.776C24.0908 167.831 23.2156 167.714 22.3885 167.432C21.5615 167.15 20.7989 166.709 20.1444 166.135C19.4899 165.56 18.9565 164.863 18.5745 164.084C18.1925 163.305 17.9694 162.459 17.9178 161.595C17.8404 160.297 18.1524 159.006 18.8146 157.883C19.4769 156.761 20.4601 155.857 21.6405 155.288C22.821 154.718 24.1454 154.508 25.4465 154.685C26.7475 154.861 27.9661 155.416 28.9487 156.278C29.9312 157.141 30.6336 158.272 30.9677 159.529C31.3019 160.787 31.253 162.114 30.8272 163.343C30.4014 164.573 29.6176 165.651 28.5741 166.44ZM21.7821 165.929C22.7236 166.472 23.8058 166.725 24.8919 166.657C26.3475 166.566 27.7081 165.906 28.6742 164.819C29.6404 163.733 30.1327 162.309 30.0417 160.862C29.9738 159.782 29.5846 158.747 28.9238 157.887C28.263 157.027 27.3605 156.382 26.3308 156.032C25.3012 155.682 24.1901 155.642 23.138 155.918C22.0859 156.195 21.1394 156.775 20.4186 157.585C19.6977 158.396 19.235 159.401 19.0896 160.473C18.9441 161.545 19.1226 162.636 19.6022 163.608C20.0817 164.579 20.8405 165.387 21.7821 165.929Z" fill="#74E0FC" stroke="#74E0FC"/>
<path d="M34.3499 155.628C34.3499 156.181 33.8972 156.636 33.3302 156.636C32.7633 156.636 32.3105 156.181 32.3105 155.628C32.3105 155.076 32.7633 154.621 33.3302 154.621C33.8972 154.621 34.3499 155.076 34.3499 155.628Z" fill="#74E0FC" stroke="#74E0FC"/>
<path d="M112.656 42.9812C108.846 42.979 105.12 44.0979 101.951 46.1962C98.7812 48.2946 96.3103 51.2783 94.8505 54.7698C93.3907 58.2613 93.0076 62.1038 93.7497 65.8113C94.4917 69.5188 96.3256 72.9247 99.0193 75.5983C101.713 78.2718 105.146 80.0928 108.883 80.8311C112.62 81.5693 116.494 81.1915 120.015 79.7455C123.535 78.2996 126.545 75.8503 128.662 72.7076C130.779 69.5649 131.909 65.87 131.909 62.0901C131.906 57.025 129.877 52.1679 126.268 48.5852C122.658 45.0026 117.763 42.9871 112.656 42.9812Z" fill="#6BCCBF"/>
<path d="M112.723 82.6066C108.619 82.6066 104.607 81.3995 101.195 79.1378C97.7824 76.8761 95.1228 73.6614 93.5522 69.9003C91.9816 66.1393 91.5707 62.0007 92.3714 58.008C93.172 54.0152 95.1483 50.3477 98.0503 47.4691C100.952 44.5905 104.65 42.6301 108.675 41.8359C112.7 41.0417 116.872 41.4493 120.664 43.0072C124.456 44.5651 127.696 47.2033 129.976 50.5882C132.257 53.9731 133.474 57.9526 133.474 62.0235C133.468 67.4807 131.28 72.7127 127.389 76.5715C123.499 80.4303 118.225 82.6008 112.723 82.6066ZM112.723 44.2669C109.187 44.2669 105.73 45.307 102.79 47.2557C99.8501 49.2044 97.5586 51.9741 96.2054 55.2147C94.8522 58.4552 94.4981 62.021 95.188 65.4612C95.8778 68.9014 97.5806 72.0613 100.081 74.5416C102.581 77.0218 105.767 78.7108 109.235 79.3951C112.703 80.0794 116.298 79.7282 119.565 78.3859C122.832 77.0436 125.624 74.7706 127.589 71.8541C129.553 68.9377 130.602 65.5089 130.602 62.0014C130.602 57.2979 128.718 52.7871 125.365 49.4612C122.012 46.1353 117.465 44.2669 112.723 44.2669Z" fill="white"/>
<path d="M108.052 71.179L122.188 51.3607C122.724 50.6069 123.238 49.8311 123.83 49.1438C124.422 48.4566 124.892 48.2239 125.64 48.7448C125.939 48.9338 126.15 49.2321 126.227 49.5748C126.305 49.9174 126.242 50.2764 126.054 50.5737C125.801 51.0485 125.501 51.4977 125.16 51.9149L110.153 72.9746C108.41 75.4131 107.672 75.402 105.929 72.9746C103.616 69.6494 101.314 66.435 98.99 63.1652C98.3978 62.3228 97.6715 61.4028 98.8559 60.6048C100.04 59.8067 100.666 60.7599 101.27 61.6134C103.482 64.7613 105.683 67.8537 108.052 71.179Z" fill="white"/>
<path d="M149.385 67.8538H141.183C140.743 67.8189 140.333 67.6211 140.034 67.2996C139.734 66.9781 139.568 66.5567 139.568 66.1192C139.568 65.6817 139.734 65.2602 140.034 64.9388C140.333 64.6173 140.743 64.4194 141.183 64.3845H149.385C149.824 64.4194 150.235 64.6173 150.534 64.9388C150.833 65.2602 150.999 65.6817 150.999 66.1192C150.999 66.5567 150.833 66.9781 150.534 67.2996C150.235 67.6211 149.824 67.8189 149.385 67.8538Z" fill="#74E0FC"/>
<path d="M136.826 50.5737C136.506 50.5749 136.191 50.4887 135.917 50.3244C135.643 50.1602 135.42 49.9243 135.272 49.6426C135.063 49.2332 135.025 48.7588 135.165 48.3214C135.305 47.8841 135.612 47.5187 136.021 47.3039L145.128 42.6375C145.332 42.5011 145.562 42.4089 145.804 42.367C146.046 42.3251 146.294 42.3345 146.533 42.3945C146.771 42.4545 146.994 42.5637 147.186 42.7151C147.379 42.8664 147.537 43.0564 147.65 43.2727C147.764 43.4889 147.83 43.7265 147.844 43.9698C147.858 44.2132 147.82 44.4567 147.733 44.6846C147.646 44.9124 147.511 45.1194 147.337 45.2919C147.164 45.4644 146.956 45.5986 146.726 45.6856L137.63 50.352C137.384 50.4899 137.108 50.566 136.826 50.5737Z" fill="#6BCCBF"/>
<path d="M125.864 38.2926C125.557 38.2985 125.254 38.2177 124.992 38.0598C124.793 37.9471 124.618 37.7966 124.478 37.6169C124.338 37.4372 124.235 37.2319 124.175 37.0126C124.114 36.7934 124.098 36.5645 124.127 36.3391C124.156 36.1136 124.23 35.8961 124.344 35.6989L128.232 28.9487C128.347 28.7515 128.499 28.5786 128.681 28.4398C128.863 28.301 129.071 28.1991 129.292 28.1399C129.514 28.0808 129.745 28.0654 129.972 28.0949C130.2 28.1243 130.419 28.1979 130.618 28.3114C130.817 28.4249 130.991 28.5762 131.131 28.7566C131.271 28.9369 131.374 29.1429 131.434 29.3626C131.493 29.5824 131.509 29.8116 131.479 30.0373C131.449 30.2629 131.375 30.4806 131.261 30.6778L127.339 37.428C127.189 37.6859 126.974 37.901 126.716 38.0525C126.457 38.2039 126.164 38.2866 125.864 38.2926Z" fill="#924FFB"/>
</svg>
