<svg width="237" height="237" viewBox="0 0 237 237" fill="none" xmlns="http://www.w3.org/2000/svg">
<path d="M152.972 13.8765H96.2109C93.2189 13.8765 90.3495 15.065 88.2339 17.1807C86.1182 19.2963 84.9297 22.1657 84.9297 25.1577V77.2977C87.0316 78.9249 88.5895 81.1523 89.3971 83.6848V32.7298H159.703V121.759L162.76 120.574C163.243 120.391 163.743 120.26 164.254 120.183V25.1577C164.254 22.1657 163.065 19.2963 160.949 17.1807C158.834 15.065 155.964 13.8765 152.972 13.8765Z" fill="black"/>
<path d="M159.702 146.596V156.42H102.727C104.226 162.595 103.77 169.084 101.424 174.989H152.971C155.963 174.989 158.833 173.8 160.948 171.685C163.064 169.569 164.253 166.7 164.253 163.708V148.303C163.417 148.356 162.579 148.232 161.794 147.938C161.01 147.644 160.297 147.186 159.702 146.596Z" fill="black"/>
<path d="M50.5293 210.349L64.2872 184.504" stroke="black" stroke-width="3" stroke-linecap="round" stroke-linejoin="round"/>
<path d="M149.309 175.38C145.861 178.485 140.516 183.367 139.912 184.41C137.826 188.024 131.842 196.319 123.132 199.542C120.738 200.242 118.256 200.597 115.762 200.597" stroke="black" stroke-width="3" stroke-linecap="round" stroke-linejoin="round"/>
<path d="M179.645 98.0113C178.773 96.3083 177.29 94.9966 175.494 94.3378C173.697 93.6789 171.718 93.7212 169.952 94.4563L164.252 96.8263V115.431L176.718 108.048C178.398 107.068 179.639 105.481 180.183 103.613C180.728 101.746 180.535 99.7409 179.645 98.0113Z" stroke="black" stroke-width="3" stroke-linecap="round" stroke-linejoin="round"/>
<path d="M178.353 79.9756C177.483 78.2735 176.003 76.9621 174.209 76.3032C172.414 75.6442 170.437 75.6862 168.672 76.4206L164.252 78.21V96.5775L175.438 89.9652C177.102 88.9819 178.33 87.4021 178.871 85.5468C179.412 83.6914 179.227 81.6995 178.353 79.9756Z" stroke="black" stroke-width="3" stroke-linecap="round" stroke-linejoin="round"/>
<path d="M162.763 120.663L157.433 122.683C153.608 124.133 151.683 128.409 153.133 132.233C154.583 136.058 158.859 137.984 162.684 136.534L168.013 134.513C171.838 133.064 173.763 128.788 172.314 124.963C170.864 121.138 166.588 119.213 162.763 120.663Z" stroke="black" stroke-width="3" stroke-linecap="round" stroke-linejoin="round"/>
<path d="M165.388 135.428L161.787 136.793C158.715 137.957 157.169 141.392 158.333 144.464C159.498 147.536 162.932 149.082 166.004 147.918L169.605 146.553C172.677 145.388 174.224 141.954 173.059 138.882C171.895 135.81 168.46 134.263 165.388 135.428Z" stroke="black" stroke-width="3" stroke-linecap="round" stroke-linejoin="round"/>
<path d="M90.8297 188.747C95.1531 185.597 98.5895 181.384 100.806 176.516C103.022 171.648 103.943 166.289 103.479 160.961C103.015 155.632 101.183 150.513 98.1589 146.101C95.135 141.689 91.0225 138.133 86.22 135.777V115.81C86.2074 114.335 85.7981 112.89 85.035 111.627C84.8668 111.336 84.7914 111.001 84.819 110.667C84.8465 110.332 84.9756 110.014 85.1891 109.755C87.3424 107.065 88.9413 103.975 89.8932 100.664C90.8451 97.3526 91.1312 93.8854 90.7349 90.4628C89.3721 74.4772 78.6716 74.4298 76.2779 76.4561C74.69 77.7833 76.6334 86.0191 75.2825 91.3753C73.979 96.5419 70.1988 101.436 67.4496 104.41C65.4878 106.566 64.398 109.375 64.3923 112.291V147.367L64.2383 184.469" stroke="black" stroke-width="3" stroke-linecap="round" stroke-linejoin="round"/>
<path d="M115.799 200.621L110.479 210.349" stroke="black" stroke-width="3" stroke-linecap="round" stroke-linejoin="round"/>
<path d="M84.9297 110.383V111.236C84.9666 111.372 85.0182 111.503 85.0837 111.627C85.8468 112.89 86.2561 114.335 86.2687 115.81V135.777C87.3623 136.323 88.4227 136.932 89.4445 137.602V102.337C88.5033 105.034 87.0954 107.545 85.2852 109.755C85.1214 109.935 84.9999 110.15 84.9297 110.383Z" fill="black" stroke="black" stroke-miterlimit="10"/>
<path d="M159.703 121.83L162.761 120.645C163.243 120.462 163.743 120.331 164.254 120.254V25.1577C164.254 22.1657 163.065 19.2963 160.949 17.1807C158.834 15.065 155.964 13.8765 152.972 13.8765H96.2109C93.2189 13.8765 90.3495 15.065 88.2339 17.1807C86.1182 19.2963 84.9297 22.1657 84.9297 25.1577V77.2977C87.0316 78.9249 88.5895 81.1523 89.3971 83.6848" stroke="black" stroke-width="2" stroke-linecap="round" stroke-linejoin="round"/>
<path d="M102.727 156.42C104.226 162.595 103.77 169.083 101.424 174.989H152.971C155.963 174.989 158.833 173.8 160.948 171.685C163.064 169.569 164.253 166.7 164.253 163.708V148.303" stroke="black" stroke-width="2" stroke-linecap="round" stroke-linejoin="round"/>
<path d="M124.009 75.7334C119.273 75.7334 114.643 77.138 110.704 79.7695C106.766 82.401 103.696 86.1413 101.884 90.5174C100.071 94.8935 99.5967 99.7088 100.521 104.354C101.445 109 103.726 113.267 107.075 116.617C110.424 119.966 114.692 122.247 119.337 123.171C123.983 124.095 128.798 123.621 133.174 121.808C137.55 119.995 141.291 116.926 143.922 112.988C146.554 109.049 147.958 104.419 147.958 99.6822C147.955 93.3316 145.431 87.2419 140.94 82.7513C136.45 78.2607 130.36 75.7365 124.009 75.7334Z" fill="#6BCCBF"/>
<path d="M124.104 125.397C119.002 125.397 114.014 123.884 109.772 121.049C105.529 118.214 102.223 114.185 100.27 109.471C98.3178 104.758 97.8069 99.5706 98.8023 94.5664C99.7977 89.5622 102.255 84.9655 105.863 81.3577C109.47 77.7498 114.067 75.2929 119.071 74.2975C124.075 73.3021 129.262 73.8129 133.976 75.7655C138.69 77.718 142.719 81.0246 145.554 85.2669C148.389 89.5093 149.902 94.497 149.902 99.5992C149.895 106.439 147.175 112.997 142.339 117.834C137.502 122.67 130.944 125.39 124.104 125.397ZM124.104 77.3449C119.7 77.3449 115.394 78.6511 111.732 81.0983C108.071 83.5454 105.217 87.0236 103.532 91.0929C101.847 95.1622 101.407 99.6398 102.267 103.959C103.127 108.279 105.249 112.246 108.364 115.36C111.479 118.473 115.447 120.593 119.767 121.451C124.087 122.309 128.565 121.866 132.633 120.179C136.702 118.492 140.178 115.636 142.623 111.973C145.069 108.31 146.373 104.004 146.37 99.5992C146.364 93.6969 144.016 88.0383 139.841 83.8658C135.666 79.6933 130.006 77.3481 124.104 77.3449Z" fill="#EDEDED"/>
<path d="M118.298 111.129C124.318 102.597 130.148 94.4446 135.872 86.2444C136.535 85.3082 137.175 84.3365 137.91 83.4478C138.49 82.7486 139.237 82.2628 140.173 82.9382C140.54 83.1805 140.797 83.5567 140.89 83.9863C140.983 84.4159 140.905 84.8649 140.671 85.2371C140.355 85.8302 139.986 86.3934 139.569 86.9198C133.352 95.752 127.118 104.568 120.87 113.369C118.701 116.426 117.789 116.414 115.62 113.369C112.74 109.281 109.885 105.169 106.993 101.081C106.258 100.026 105.358 98.8646 106.827 97.8574C108.297 96.8501 109.079 98.0707 109.825 99.1372L118.298 111.129Z" fill="white"/>
<path d="M155.235 69.2395L148.255 76.6813C147.861 77.1009 147.316 77.3466 146.74 77.3643C146.165 77.3821 145.606 77.1705 145.186 76.7761C144.766 76.3817 144.521 75.8367 144.503 75.2612C144.485 74.6856 144.697 74.1265 145.091 73.7069L152.071 66.2651C152.465 65.8456 153.01 65.5999 153.586 65.5821C154.161 65.5643 154.72 65.7759 155.14 66.1703C155.56 66.5648 155.805 67.1097 155.823 67.6853C155.841 68.2609 155.629 68.8199 155.235 69.2395Z" fill="#74E0FC"/>
<path d="M132.862 68.8603C132.592 69.1554 132.244 69.3686 131.858 69.4754C131.473 69.5823 131.065 69.5786 130.681 69.4647C130.405 69.3893 130.147 69.2601 129.921 69.0845C129.695 68.9089 129.507 68.6903 129.366 68.4414C129.225 68.1924 129.134 67.918 129.1 67.634C129.065 67.35 129.087 67.062 129.165 66.7866L132.72 54.51C132.793 54.2311 132.921 53.9696 133.097 53.7409C133.272 53.5121 133.492 53.3207 133.742 53.1778C133.993 53.0349 134.269 52.9434 134.556 52.9086C134.842 52.8739 135.132 52.8966 135.41 52.9754C135.687 53.0542 135.946 53.1875 136.171 53.3676C136.396 53.5477 136.583 53.7709 136.721 54.0241C136.859 54.2773 136.945 54.5556 136.974 54.8425C137.004 55.1294 136.975 55.4192 136.891 55.695L133.419 67.9479C133.319 68.2966 133.126 68.6119 132.862 68.8603Z" fill="#6BCCBF"/>
<path d="M116.307 68.9434C116.049 69.2187 115.722 69.4193 115.359 69.524C115.087 69.6079 114.801 69.637 114.517 69.6096C114.233 69.5822 113.958 69.4989 113.707 69.3644C113.456 69.23 113.233 69.0471 113.053 68.8264C112.873 68.6056 112.739 68.3514 112.657 68.0783L109.813 58.7405C109.73 58.4674 109.701 58.1806 109.729 57.8964C109.757 57.6122 109.84 57.3363 109.974 57.0843C110.245 56.5754 110.707 56.195 111.259 56.0269C111.81 55.8587 112.406 55.9166 112.915 56.1877C113.424 56.4588 113.804 56.921 113.973 57.4726L116.805 66.8222C116.918 67.1881 116.931 67.5775 116.843 67.9503C116.756 68.323 116.571 68.6658 116.307 68.9434Z" fill="#924FFB"/>
</svg>
