<svg width="220" height="220" viewBox="0 0 220 220" fill="none" xmlns="http://www.w3.org/2000/svg">
<path d="M193.722 73.9351V97.7281C193.722 102.326 191.895 106.735 188.644 109.986C185.393 113.238 180.984 115.064 176.386 115.064H47.9278C43.33 115.064 38.9205 113.238 35.6694 109.986C32.4183 106.735 30.5918 102.326 30.5918 97.7281V73.9351" stroke="white" stroke-width="3" stroke-linecap="round" stroke-linejoin="round"/>
<path d="M112.156 73.9351V143.136" stroke="white" stroke-width="3" stroke-linecap="round" stroke-linejoin="round"/>
<path d="M129.117 40H95.1934V73.924H129.117V40Z" stroke="white" stroke-width="3" stroke-linecap="round" stroke-linejoin="round"/>
<path d="M47.5529 40H13.6289V73.924H47.5529V40Z" stroke="white" stroke-width="3" stroke-linecap="round" stroke-linejoin="round"/>
<path d="M210.672 40H176.748V73.924H210.672V40Z" stroke="white" stroke-width="3" stroke-linecap="round" stroke-linejoin="round"/>
<path d="M42.0414 45.522H19.1504V68.413H42.0414V45.522Z" fill="#924FFB"/>
<path d="M123.608 45.522H100.717V68.413H123.608V45.522Z" fill="#6BCCBF"/>
<path d="M205.161 45.522H182.27V68.413H205.161V45.522Z" fill="#74E0FC"/>
<path d="M112.793 216.187C131.906 216.187 147.399 200.693 147.399 181.581C147.399 162.469 131.906 146.975 112.793 146.975C93.6811 146.975 78.1875 162.469 78.1875 181.581C78.1875 200.693 93.6811 216.187 112.793 216.187Z" fill="black"/>
<path d="M113.201 157.37C110.313 157.464 107.57 158.652 105.527 160.695C103.484 162.738 102.295 165.482 102.201 168.37C102.226 169.839 102.539 171.289 103.124 172.637C103.709 173.985 104.553 175.205 105.61 176.226C106.666 177.248 107.913 178.051 109.28 178.591C110.646 179.13 112.106 179.395 113.575 179.37C119.889 179.37 125.081 174.299 124.828 168.249C124.677 165.283 123.381 162.49 121.212 160.461C119.043 158.432 116.171 157.323 113.201 157.37Z" fill="white"/>
<path d="M112.574 143.653C105.031 143.723 97.6778 146.028 91.4443 150.276C85.2107 154.524 80.3765 160.525 77.5528 167.52C74.7291 174.515 74.0426 182.19 75.5801 189.575C77.1176 196.96 80.8101 203.723 86.1908 209.01C91.5715 214.297 98.3988 217.87 105.81 219.278C113.221 220.685 120.883 219.864 127.827 216.917C134.771 213.971 140.686 209.032 144.824 202.725C148.962 196.418 151.137 189.025 151.074 181.482C151.037 176.468 150.01 171.511 148.054 166.895C146.098 162.278 143.25 158.093 139.673 154.579C136.097 151.065 131.862 148.291 127.212 146.416C122.562 144.541 117.588 143.602 112.574 143.653ZM132.693 210.478C132.965 209.161 133.094 207.819 133.078 206.474C133.078 203.889 133.078 201.447 132.946 198.862C132.732 195.975 131.869 193.174 130.42 190.668C128.971 188.162 126.975 186.016 124.58 184.39C122.185 182.764 119.454 181.7 116.59 181.279C113.726 180.857 110.804 181.088 108.042 181.955C98.758 184.925 94.622 191.855 94.754 204.285V207.376C94.7174 208.909 94.9367 210.437 95.403 211.897C90.1502 208.834 85.7929 204.447 82.7665 199.173C79.7401 193.9 78.1504 187.924 78.1564 181.844C78.1623 175.763 79.7636 169.791 82.8004 164.523C85.8371 159.255 90.2029 154.877 95.4617 151.824C100.72 148.772 106.688 147.153 112.768 147.129C118.849 147.105 124.829 148.677 130.112 151.688C135.394 154.699 139.795 159.043 142.873 164.287C145.951 169.53 147.599 175.49 147.653 181.57C147.655 187.234 146.297 192.816 143.694 197.846C141.091 202.877 137.318 207.209 132.693 210.478Z" fill="white"/>
</svg>
